<svg xmlns="http://www.w3.org/2000/svg" viewBox="0 0 1366 666"><defs><style>.cls-1{isolation:isolate;}.cls-101,.cls-2{fill:#885780;}.cls-3{fill:#e4d31c;}.cls-4{fill:#5a9090;}.cls-5{fill:#a3bf3a;}.cls-6{font-size:20.87px;fill:#c5a7b4;}.cls-104,.cls-19,.cls-26,.cls-30,.cls-6,.cls-76,.cls-83{font-family:SourceSansPro-Bold, Source Sans Pro;}.cls-104,.cls-19,.cls-26,.cls-30,.cls-6,.cls-76,.cls-83,.cls-84{font-weight:700;}.cls-7{letter-spacing:-0.02em;}.cls-8{letter-spacing:-0.03em;}.cls-9{letter-spacing:-0.03em;}.cls-10{letter-spacing:0em;}.cls-11{letter-spacing:-0.01em;}.cls-12{letter-spacing:-0.01em;}.cls-13{letter-spacing:-0.01em;}.cls-14{letter-spacing:-0.01em;}.cls-15{letter-spacing:0.01em;}.cls-16,.cls-84{fill:#fff;}.cls-16{opacity:0.5;}.cls-17{fill:#d5562b;}.cls-18,.cls-19{fill:#9e8d15;}.cls-19,.cls-30{font-size:14.47px;}.cls-20{letter-spacing:-0.03em;}.cls-21{letter-spacing:-0.02em;}.cls-22{letter-spacing:-0.02em;}.cls-23{letter-spacing:-0.03em;}.cls-24{letter-spacing:0em;}.cls-25,.cls-26{fill:#657525;}.cls-26{font-size:24.16px;}.cls-27{letter-spacing:-0.01em;}.cls-28{letter-spacing:-0.01em;}.cls-29,.cls-30{fill:#606060;}.cls-31{letter-spacing:-0.01em;}.cls-32{letter-spacing:0em;}.cls-33,.cls-52{font-size:19.73px;}.cls-104,.cls-33,.cls-52{fill:#37352f;}.cls-33{font-family:SourceSansPro-SemiBold, Source Sans Pro;font-weight:600;}.cls-34{letter-spacing:-0.01em;}.cls-35{letter-spacing:-0.01em;}.cls-36{letter-spacing:-0.01em;}.cls-37{letter-spacing:0em;}.cls-38{letter-spacing:-0.02em;}.cls-39{letter-spacing:-0.02em;}.cls-40{letter-spacing:-0.03em;}.cls-41{letter-spacing:-0.04em;}.cls-42{letter-spacing:-0.03em;}.cls-43{letter-spacing:-0.02em;}.cls-44{letter-spacing:-0.02em;}.cls-45{letter-spacing:-0.02em;}.cls-46{letter-spacing:0.01em;}.cls-47{letter-spacing:-0.05em;}.cls-48{letter-spacing:0.02em;}.cls-49{letter-spacing:-0.02em;}.cls-50{letter-spacing:-0.02em;}.cls-51{letter-spacing:-0.02em;}.cls-52{font-family:SourceSansPro-Regular, Source Sans Pro;}.cls-53{letter-spacing:0em;}.cls-54{letter-spacing:-0.02em;}.cls-55{letter-spacing:-0.02em;}.cls-56{letter-spacing:-0.02em;}.cls-57{letter-spacing:0em;}.cls-58{letter-spacing:0em;}.cls-59{letter-spacing:-0.01em;}.cls-60{letter-spacing:-0.01em;}.cls-61{letter-spacing:0.01em;}.cls-62{letter-spacing:0.01em;}.cls-63{letter-spacing:-0.01em;}.cls-64{letter-spacing:-0.02em;}.cls-65{letter-spacing:0.01em;}.cls-66{letter-spacing:-0.02em;}.cls-67{letter-spacing:0.02em;}.cls-68{letter-spacing:-0.01em;}.cls-69{letter-spacing:-0.01em;}.cls-70{letter-spacing:0em;}.cls-71{letter-spacing:-0.02em;}.cls-72{letter-spacing:0.02em;}.cls-73{letter-spacing:-0.01em;}.cls-74{letter-spacing:-0.01em;}.cls-75{opacity:0.75;mix-blend-mode:multiply;}.cls-101,.cls-76,.cls-83{font-size:42.92px;}.cls-76{fill:#78725a;}.cls-77{letter-spacing:-0.01em;}.cls-78{letter-spacing:-0.02em;}.cls-79{letter-spacing:-0.03em;}.cls-80{letter-spacing:-0.05em;}.cls-81{letter-spacing:0em;}.cls-82{letter-spacing:-0.01em;}.cls-83{fill:#f7f1d9;}.cls-84{font-size:20.67px;font-family:SourceSerifPro-Bold, Source Serif Pro;}.cls-85{letter-spacing:-0.04em;}.cls-86{letter-spacing:-0.02em;}.cls-87{letter-spacing:-0.08em;}.cls-88{letter-spacing:-0.02em;}.cls-89{letter-spacing:0em;}.cls-90{letter-spacing:-0.01em;}.cls-91{letter-spacing:-0.06em;}.cls-92{letter-spacing:-0.03em;}.cls-93{letter-spacing:0em;}.cls-94{letter-spacing:-0.02em;}.cls-95{letter-spacing:-0.04em;}.cls-96{letter-spacing:0em;}.cls-97{letter-spacing:-0.01em;}.cls-98{letter-spacing:-0.02em;}.cls-99{letter-spacing:-0.03em;}.cls-100{letter-spacing:-0.02em;}.cls-101{font-family:SourceSansPro-Black, Source Sans Pro;font-weight:800;}.cls-102{letter-spacing:-0.09em;}.cls-103{fill:#ada695;}.cls-104{font-size:21px;}.cls-105{letter-spacing:-0.02em;}.cls-106{fill:#a03d22;}</style></defs><title>curriculum</title><g class="cls-1"><g id="Layer_1" data-name="Layer 1"><rect class="cls-2" x="30.59" y="77.47" width="1196.22" height="106.42"/><rect class="cls-2" x="9.72" y="191.54" width="1217.93" height="103.67"/><rect class="cls-2" x="7.73" y="304" width="1219.54" height="130.37"/><polygon class="cls-3" points="377.99 552.69 67.61 552.69 67.61 21.26 82.91 21.26 87.24 26.63 91.43 21.26 377.99 21.26 377.99 552.69"/><polygon class="cls-4" points="1198.78 554.59 736.36 554.59 736.36 21.26 1209.38 21.26 1209.38 545.95 1198.78 554.59"/><rect class="cls-5" x="363.59" y="13.42" width="386.53" height="548.8"/><text class="cls-6" transform="translate(59.32 180.17) rotate(-90)">Sel<tspan class="cls-7" x="28.39" y="0">f</tspan><tspan class="cls-8" x="35.13" y="0">-</tspan><tspan class="cls-9" x="41.52" y="0">S</tspan><tspan class="cls-10" x="52.54" y="0">tudy</tspan></text><text class="cls-6" transform="translate(34.27 286.52) rotate(-90)"><tspan class="cls-11">L</tspan><tspan x="10.52" y="0">e</tspan><tspan class="cls-12" x="21.33" y="0">c</tspan><tspan x="30.87" y="0">tu</tspan><tspan class="cls-13" x="50.72" y="0">r</tspan><tspan class="cls-10" x="58.82" y="0">e &amp;</tspan><tspan x="0" y="25.05">A</tspan><tspan class="cls-14" x="11.96" y="25.05">c</tspan><tspan x="21.5" y="25.05">tivities</tspan></text><text class="cls-6" transform="translate(34.27 415.73) rotate(-90)">P<tspan class="cls-13" x="12.44" y="0">r</tspan><tspan x="20.54" y="0">oje</tspan><tspan class="cls-14" x="48.74" y="0">ct</tspan><tspan x="66.06" y="0">s &amp;</tspan><tspan class="cls-15" x="-11.93" y="25.05">A</tspan><tspan x="0.32" y="25.05">ssignmen</tspan><tspan class="cls-14" x="88.3" y="25.05">t</tspan><tspan x="96.09" y="25.05">s</tspan></text><polygon class="cls-16" points="85.73 70.26 82.91 534.39 352.55 538.14 354.43 69.32 85.73 70.26"/><polygon class="cls-16" points="376.49 58.05 377.24 543.81 406.23 543.81 409.68 547.06 412.94 543.81 733.34 543.81 733.51 59.92 376.49 58.05"/><polygon class="cls-16" points="764.52 73.38 764.52 535.38 1188.31 537.06 1195.62 532.32 1188.84 73.63 764.52 73.38"/><polygon class="cls-17" points="1230.83 518.45 1227.58 504.84 1226.44 472.8 1228.34 447.27 663.14 447.21 687.22 481.38 677.02 500.57 679.37 504.94 674.39 505.5 668.1 517.34 1230.83 518.45"/><g id="HTML_Icon" data-name="HTML Icon"><polygon class="cls-18" points="138.54 281.9 142.05 288.15 119.01 299.09 140.1 310.02 137.76 315.1 111.59 301.43 110.03 295.96 138.54 281.9"/><polygon class="cls-18" points="160.8 279.56 142.44 320.57 147.91 322.52 166.27 281.12 160.8 279.56"/><polygon class="cls-18" points="162.37 310.81 163.93 314.71 191.27 304.95 170.57 286.59 167.83 293.23 178.38 302.21 162.37 310.81"/></g><text class="cls-19" transform="translate(132.49 337.4)">HTML</text><g id="CSS_Icon" data-name="CSS Icon"><polygon class="cls-18" points="254.08 286.03 248.69 285.66 251.6 283.23 250.04 281.37 246.94 283.71 246.94 280.12 242.9 280.12 242.97 283.54 240.1 280.74 237.3 282.92 239.62 285.05 235.75 284.78 235.13 288.51 240.15 288.85 237.3 291 240.1 292.86 243.13 290.33 243.21 293.8 246.94 293.8 246.94 291.75 248.49 293.18 250.98 291.31 249.05 289.44 253.77 289.76 254.08 286.03"/><path class="cls-18" d="M283.14,284.45l.25,6.06s-9.6-.5-11.12,1c-2.79,2.79-2.27,14.66-2.27,14.66L262.67,309,270,313a13,13,0,0,0,.51,9.85c1.26,2.53,9.85,2.27,9.85,2.27l-.76,4.81s-11.11,1.26-14.9-4.05-1.27-11.62-1.27-11.62l-7.07-4-.26-5.06,9.1-1.76s-1.52-14.15,4-16.93S283.14,284.45,283.14,284.45Z"/><path class="cls-18" d="M288.44,284.7l-.5,5.56S297,289,299.06,292s-.26,14.9-.26,14.9l3.79,2-4,2.78s1.77,9.35-1.51,10.11a50.22,50.22,0,0,1-6.57,1l-.26,4s10.36,1,11.63-1.77S303.1,313,303.1,313l3.54-2.78v-3.29l-4.55-1.77s4.55-15.66.76-17.93S288.44,284.7,288.44,284.7Z"/></g><text class="cls-19" transform="translate(272.1 346.78)"><tspan class="cls-20">C</tspan><tspan class="cls-21" x="8.02" y="0">S</tspan><tspan x="15.8" y="0">S</tspan></text><g id="JavaScript_Icon" data-name="JavaScript Icon"><path class="cls-18" d="M204.8,366.78,202.48,371s14.29,6,15.07,11.39.38,14.29-.39,17.19-11.78,7.73-11.78,7.73l1.74,5.21s14.48-6.18,14.68-9.85,3.09-19.7,1.15-23.56C219.38,372,204.8,366.78,204.8,366.78Z"/><path class="cls-18" d="M193.6,367.74l2.7,5.41a46.65,46.65,0,0,0-8.5,6c-4.46,4.21-3.09,17.38-.77,21.44S197.65,407,197.65,407l-1.54,4.83s-12.36-3.67-14.87-9.66-3.48-21.44-.2-25.49S193.6,367.74,193.6,367.74Z"/><polygon class="cls-18" points="232.38 370.22 232.71 379.7 241.86 379.7 242.84 370.55 232.38 370.22"/><path class="cls-18" d="M232.35,396.69l-.65,8.83h3.6l-2.62,5.56s6.87-1.31,7.2-4.91,1-9.81,1-9.81Z"/></g><text class="cls-19" transform="translate(167.62 431.32)">Ja<tspan class="cls-22" x="14.99" y="0">v</tspan><tspan x="22.27" y="0">aScri</tspan><tspan class="cls-23" x="54.45" y="0">p</tspan><tspan class="cls-24" x="62.37" y="0">t</tspan></text><g id="React_Icon" data-name="React Icon"><path class="cls-25" d="M568.93,374.46c-9.3,5.47-25.17-9.3-25.17-9.3s-15,18.06-27.63,7.93c-6.87-5.53-2.18-25.71-2.18-25.71s-21.62-3-20.8-17.78c.52-9.22,21.34-16.69,21.34-16.69s-7.66-23.53,4.93-27.36S544,296,544,296s16.14-12.86,25.44-9.85,4.65,27.36,4.65,27.36,20.52,6.84,20.52,17.5-21.07,16.69-21.07,16.69S578.23,369,568.93,374.46Zm-34.74-59.91-9,16.41L534.74,346h18.87l9.3-15.87-10.39-16.41Zm4.65-5.2,10.12-.27-4.65-6Zm21.06,6,4.93,8.48,2.46-7.11Zm5.2,21.34-4.92,8.75,7.38-1.36Zm-26.53,14.77,5.47,6.57,5.74-6.84Zm-10.13-5.74L523,336.16l-3,7.66ZM522.7,324.4l6.29-9.3-8.75,1.37Zm33.1-14.5,12.58,1.64s5.2-18.05-1.36-21.61-20,9.3-20,9.3Zm-23-.27,7.93-9.85s-12.85-13.13-19.69-9.85-2.74,21.89-2.74,21.89Zm-35.29,21.61c.55,6.84,18.06,10.94,18.06,10.94l4.1-12.58-4.38-12S497,324.4,497.53,331.24Zm24.35,39.39c8.48,3.83,18.33-9.3,18.33-9.3l-9-10.39-12.58-1.65S513.4,366.8,521.88,370.63Zm46-1.64c5.74-6.29,1.64-20.52,1.64-20.52l-14.23,2.47-8.2,10.39S560.86,376.63,567.84,369Zm0-38.85,4.37,12.59s17-5.47,17.79-12.31-17.51-12.59-17.51-12.59Z"/><path class="cls-25" d="M552.24,327.68c1.37,6.57-2.46,9.85-7.66,10.4-7.39.78-11.41-5.66-9.3-9.58C541,317.83,551.34,323.32,552.24,327.68Z"/></g><text class="cls-26" transform="translate(513.96 396.85)"><tspan class="cls-27">R</tspan><tspan class="cls-28" x="14.57" y="0">e</tspan><tspan x="26.82" y="0">a</tspan><tspan class="cls-27" x="39.56" y="0">c</tspan><tspan x="50.6" y="0">t</tspan></text><g id="Ruby_Icon" data-name="Ruby Icon"><polygon class="cls-29" points="1092.55 269.2 1101.91 281.61 1078.03 280.91 1092.55 269.2"/><polygon class="cls-29" points="1101.21 283.72 1090.44 311.25 1087.63 312.04 1076.16 283.25 1101.21 283.72"/><path class="cls-29" d="M1092.78,310.87c.23-.7,11.24-27.15,11.24-27.15l9.12-1.41Z"/><polygon class="cls-29" points="1085.29 310.64 1073.59 283.48 1061.18 282.78 1085.29 310.64"/><polygon class="cls-29" points="1104.48 280.91 1112.44 279.04 1106.82 272.01 1104.48 280.91"/><polygon class="cls-29" points="1072.18 281.14 1061.41 279.97 1068.9 271.78 1072.18 281.14"/><polygon class="cls-29" points="1071.48 269.91 1074.52 280.21 1089.74 268.97 1071.48 269.91"/><polygon class="cls-29" points="1095.35 269.44 1102.38 279.5 1104.72 269.67 1095.35 269.44"/></g><text class="cls-30" transform="translate(1070.76 328.08)">Ru<tspan class="cls-31" x="17.09" y="0">b</tspan><tspan class="cls-32" x="25.27" y="0">y</tspan></text><g id="_.NET_Icon" data-name=".NET Icon"><polygon class="cls-29" points="820.11 310.63 832.84 310.63 842.51 287.5 852.21 278.77 837.77 278.21 820.11 310.63"/><polygon class="cls-29" points="843.79 287.43 853.34 279.05 868.95 302.88 859.1 309 843.79 287.43"/><polygon class="cls-29" points="859.55 309.52 873.81 311.02 877.73 308.78 893.54 279.39 881.39 279.2 870.21 303.03 859.55 309.52"/></g><text class="cls-30" transform="translate(841.86 326.75)">.NET</text><text class="cls-33" transform="translate(98.61 470.54)">Bac<tspan class="cls-34" x="31.07" y="0">k</tspan><tspan x="41.18" y="0">g</tspan><tspan class="cls-35" x="51.44" y="0">r</tspan><tspan x="58.6" y="0">ound &amp; Basics</tspan><tspan x="0" y="23.68">De</tspan><tspan class="cls-36" x="22.33" y="23.68">v</tspan><tspan class="cls-37" x="31.98" y="23.68">elopment </tspan><tspan class="cls-38" x="118.04" y="23.68">F</tspan><tspan x="127.75" y="23.68">undamen</tspan><tspan class="cls-39" x="208.76" y="23.68">t</tspan><tspan x="215.47" y="23.68">als</tspan><tspan x="0" y="47.35">P</tspan><tspan class="cls-35" x="11.48" y="47.35">r</tspan><tspan x="18.64" y="47.35">og</tspan><tspan class="cls-40" x="39.74" y="47.35">r</tspan><tspan x="46.58" y="47.35">amming </tspan><tspan class="cls-41" x="120.45" y="47.35">P</tspan><tspan x="131.18" y="47.35">a</tspan><tspan class="cls-42" x="141.36" y="47.35">r</tspan><tspan x="148.21" y="47.35">adigms</tspan></text><text class="cls-33" transform="translate(391.68 477.29)">Modern Ja<tspan class="cls-43" x="88.94" y="0">v</tspan><tspan x="98.31" y="0">aScri</tspan><tspan class="cls-44" x="140.89" y="0">p</tspan><tspan x="151.58" y="0">t </tspan><tspan class="cls-45" x="162.65" y="0">t</tspan><tspan x="169.46" y="0">ooling</tspan><tspan x="0" y="23.68">Singl</tspan><tspan class="cls-46" x="42.58" y="23.68">e</tspan><tspan x="52.78" y="23.68">-</tspan><tspan class="cls-41" x="59.13" y="23.68">P</tspan><tspan x="69.86" y="23.68">a</tspan><tspan class="cls-45" x="80.04" y="23.68">g</tspan><tspan x="89.99" y="23.68">e Appli</tspan><tspan class="cls-34" x="147.72" y="23.68">c</tspan><tspan class="cls-45" x="156.63" y="23.68">a</tspan><tspan class="cls-37" x="166.5" y="23.68">tions (S</tspan><tspan class="cls-47" x="230.27" y="23.68">P</tspan><tspan class="cls-48" x="240.76" y="23.68">A</tspan><tspan x="252.13" y="23.68">s)</tspan><tspan x="0" y="47.35">In</tspan><tspan class="cls-45" x="16.61" y="47.35">t</tspan><tspan x="23.42" y="47.35">ermedi</tspan><tspan class="cls-45" x="83.71" y="47.35">at</tspan><tspan x="100.39" y="47.35">e Web Con</tspan><tspan class="cls-49" x="188.42" y="47.35">c</tspan><tspan x="197.06" y="47.35">e</tspan><tspan class="cls-50" x="207.06" y="47.35">p</tspan><tspan class="cls-34" x="217.76" y="47.35">t</tspan><tspan x="224.68" y="47.35">s</tspan><tspan class="cls-51" x="233.19" y="47.35">	</tspan></text><text class="cls-52" transform="translate(94.22 95.08)">The fi<tspan class="cls-53" x="45.65" y="0">r</tspan><tspan class="cls-54" x="52.42" y="0">s</tspan><tspan x="60.29" y="0">t unit of the p</tspan><tspan class="cls-34" x="170.39" y="0">r</tspan><tspan x="177.03" y="0">og</tspan><tspan class="cls-55" x="197.67" y="0">r</tspan><tspan x="204.04" y="0">am </tspan><tspan x="0" y="23.68">will </tspan><tspan class="cls-56" x="33.03" y="23.68">c</tspan><tspan class="cls-53" x="41.61" y="23.68">ov</tspan><tspan x="61.36" y="23.68">er fundamen</tspan><tspan class="cls-39" x="167.05" y="23.68">t</tspan><tspan x="173.31" y="23.68">al skills </tspan><tspan class="cls-34" x="0" y="47.35">f</tspan><tspan x="5.56" y="47.35">or soft</tspan><tspan class="cls-34" x="57.73" y="47.35">w</tspan><tspan x="71.7" y="47.35">a</tspan><tspan class="cls-34" x="81.64" y="47.35">r</tspan><tspan x="88.29" y="47.35">e d</tspan><tspan class="cls-57" x="112.97" y="47.35">e</tspan><tspan class="cls-58" x="122.86" y="47.35">v</tspan><tspan x="131.99" y="47.35">elope</tspan><tspan class="cls-53" x="178.24" y="47.35">r</tspan><tspan x="185" y="47.35">s.</tspan><tspan class="cls-55" x="0" y="71.03">S</tspan><tspan x="10.06" y="71.03">tuden</tspan><tspan class="cls-34" x="58.99" y="71.03">t</tspan><tspan x="65.46" y="71.03">s will </tspan><tspan class="cls-59" x="110.7" y="71.03">g</tspan><tspan class="cls-34" x="120.37" y="71.03">e</tspan><tspan x="129.96" y="71.03">t </tspan><tspan class="cls-60" x="140.57" y="71.03">t</tspan><tspan x="146.97" y="71.03">o kn</tspan><tspan class="cls-58" x="182.16" y="71.03">o</tspan><tspan x="192.78" y="71.03">w their </tspan><tspan x="0" y="94.7">d</tspan><tspan class="cls-57" x="10.95" y="94.7">e</tspan><tspan class="cls-53" x="20.83" y="94.7">v</tspan><tspan x="29.97" y="94.7">elopment envi</tspan><tspan class="cls-34" x="148.62" y="94.7">r</tspan><tspan x="155.27" y="94.7">onment and </tspan><tspan class="cls-59" x="0" y="118.38">t</tspan><tspan x="6.39" y="118.38">ools while diving in</tspan><tspan class="cls-60" x="163.74" y="118.38">t</tspan><tspan x="170.13" y="118.38">o the </tspan><tspan class="cls-56" x="215.9" y="118.38">c</tspan><tspan x="224.48" y="118.38">o</tspan><tspan class="cls-34" x="235.18" y="118.38">r</tspan><tspan x="241.83" y="118.38">e </tspan><tspan class="cls-53" x="0" y="142.06">w</tspan><tspan x="14.09" y="142.06">eb </tspan><tspan class="cls-59" x="38.73" y="142.06">t</tspan><tspan x="45.12" y="142.06">echnologies:</tspan></text><text class="cls-52" transform="translate(386.41 83.81)">Going in<tspan class="cls-59" x="68.05" y="0">t</tspan><tspan x="74.44" y="0">o the se</tspan><tspan class="cls-39" x="138.27" y="0">c</tspan><tspan x="146.85" y="0">ond uni</tspan><tspan class="cls-61" x="209.61" y="0">t</tspan><tspan x="216.41" y="0">, </tspan><tspan class="cls-43" x="225.27" y="0">s</tspan><tspan x="233.15" y="0">tuden</tspan><tspan class="cls-34" x="282.08" y="0">t</tspan><tspan x="288.55" y="0">s will </tspan><tspan class="cls-59" x="0" y="23.68">g</tspan><tspan class="cls-34" x="9.67" y="23.68">e</tspan><tspan x="19.26" y="23.68">t hand</tspan><tspan class="cls-62" x="72.29" y="23.68">s</tspan><tspan x="80.75" y="23.68">-on </tspan><tspan class="cls-63" x="112.32" y="23.68">e</tspan><tspan x="121.97" y="23.68">xperien</tspan><tspan class="cls-56" x="183.78" y="23.68">c</tspan><tspan x="192.37" y="23.68">e with the l</tspan><tspan class="cls-59" x="282.63" y="23.68">at</tspan><tspan x="298.69" y="23.68">e</tspan><tspan class="cls-43" x="308.47" y="23.68">s</tspan><tspan x="316.35" y="23.68">t </tspan><tspan x="0" y="47.35">be</tspan><tspan class="cls-43" x="20.7" y="47.35">s</tspan><tspan x="28.57" y="47.35">t p</tspan><tspan class="cls-55" x="50.13" y="47.35">r</tspan><tspan x="56.51" y="47.35">a</tspan><tspan class="cls-34" x="66.45" y="47.35">c</tspan><tspan x="75.25" y="47.35">ti</tspan><tspan class="cls-56" x="86.77" y="47.35">c</tspan><tspan x="95.35" y="47.35">es </tspan><tspan class="cls-34" x="117.35" y="47.35">f</tspan><tspan x="122.92" y="47.35">or modern Ja</tspan><tspan class="cls-43" x="233.19" y="47.35">v</tspan><tspan x="242" y="47.35">aScri</tspan><tspan class="cls-64" x="283.18" y="47.35">p</tspan><tspan class="cls-37" x="293.8" y="47.35">t </tspan><tspan x="0" y="71.03">d</tspan><tspan class="cls-57" x="10.95" y="71.03">e</tspan><tspan class="cls-53" x="20.83" y="71.03">v</tspan><tspan x="29.97" y="71.03">elopmen</tspan><tspan class="cls-65" x="103.36" y="71.03">t</tspan><tspan x="110.17" y="71.03">. </tspan><tspan class="cls-55" x="119.03" y="71.03">S</tspan><tspan x="129.09" y="71.03">tuden</tspan><tspan class="cls-34" x="178.02" y="71.03">t</tspan><tspan x="184.49" y="71.03">s will l</tspan><tspan class="cls-59" x="234.76" y="71.03">e</tspan><tspan x="244.27" y="71.03">arn about </tspan><tspan x="0" y="94.7">building </tspan><tspan class="cls-56" x="72.01" y="94.7">c</tspan><tspan x="80.6" y="94.7">ompl</tspan><tspan class="cls-63" x="123.63" y="94.7">e</tspan><tspan x="133.27" y="94.7">x in</tspan><tspan class="cls-59" x="161.67" y="94.7">t</tspan><tspan x="168.06" y="94.7">e</tspan><tspan class="cls-55" x="177.84" y="94.7">r</tspan><tspan x="184.22" y="94.7">a</tspan><tspan class="cls-34" x="194.16" y="94.7">c</tspan><tspan x="202.96" y="94.7">ti</tspan><tspan class="cls-53" x="214.48" y="94.7">v</tspan><tspan x="223.62" y="94.7">e appli</tspan><tspan class="cls-34" x="279.08" y="94.7">c</tspan><tspan class="cls-59" x="287.88" y="94.7">a</tspan><tspan x="297.54" y="94.7">tions </tspan><tspan x="0" y="118.38">with </tspan><tspan class="cls-34" x="40.37" y="118.38">R</tspan><tspan class="cls-59" x="51.4" y="118.38">e</tspan><tspan x="60.91" y="118.38">a</tspan><tspan class="cls-34" x="70.85" y="118.38">c</tspan><tspan class="cls-65" x="79.65" y="118.38">t</tspan><tspan x="86.46" y="118.38">, a popular Ja</tspan><tspan class="cls-54" x="197.71" y="118.38">v</tspan><tspan x="206.53" y="118.38">aScri</tspan><tspan class="cls-66" x="247.71" y="118.38">p</tspan><tspan x="258.32" y="118.38">t lib</tspan><tspan class="cls-55" x="289.73" y="118.38">r</tspan><tspan x="296.1" y="118.38">a</tspan><tspan class="cls-67" x="306.05" y="118.38">r</tspan><tspan x="313.39" y="118.38">y </tspan><tspan class="cls-34" x="0" y="142.06">f</tspan><tspan x="5.56" y="142.06">or building user in</tspan><tspan class="cls-59" x="154.29" y="142.06">t</tspan><tspan x="160.68" y="142.06">er</tspan><tspan class="cls-43" x="177.31" y="142.06">f</tspan><tspan x="182.68" y="142.06">a</tspan><tspan class="cls-56" x="192.62" y="142.06">c</tspan><tspan x="201.2" y="142.06">es.</tspan></text><text class="cls-52" transform="translate(772.56 98.84)">In the final uni<tspan class="cls-65" x="117.77" y="0">t</tspan><tspan x="124.58" y="0">, </tspan><tspan class="cls-43" x="133.43" y="0">s</tspan><tspan x="141.31" y="0">tuden</tspan><tspan class="cls-34" x="190.24" y="0">t</tspan><tspan x="196.71" y="0">s will </tspan><tspan class="cls-34" x="241.95" y="0">r</tspan><tspan x="248.6" y="0">ound out their </tspan><tspan x="0" y="23.68">full-</tspan><tspan class="cls-43" x="32.69" y="23.68">s</tspan><tspan class="cls-56" x="40.56" y="23.68">t</tspan><tspan x="46.82" y="23.68">ack </tspan><tspan class="cls-60" x="79.47" y="23.68">t</tspan><tspan x="85.87" y="23.68">oolkit with a </tspan><tspan class="cls-68" x="191.78" y="23.68">e</tspan><tspan x="201.43" y="23.68">xplo</tspan><tspan class="cls-49" x="236.9" y="23.68">r</tspan><tspan class="cls-69" x="243.27" y="23.68">a</tspan><tspan x="252.94" y="23.68">tion of the se</tspan><tspan class="cls-67" x="359.48" y="23.68">r</tspan><tspan class="cls-53" x="366.82" y="23.68">v</tspan><tspan x="375.96" y="23.68">e</tspan><tspan class="cls-49" x="385.74" y="23.68">r</tspan><tspan x="392.12" y="23.68">- </tspan><tspan x="0" y="47.35">side </tspan><tspan class="cls-60" x="37.8" y="47.35">t</tspan><tspan x="44.2" y="47.35">echnologies th</tspan><tspan class="cls-69" x="165.12" y="47.35">a</tspan><tspan x="174.79" y="47.35">t p</tspan><tspan class="cls-53" x="196.36" y="47.35">ow</tspan><tspan x="221.06" y="47.35">er appli</tspan><tspan class="cls-34" x="283.36" y="47.35">c</tspan><tspan class="cls-60" x="292.16" y="47.35">a</tspan><tspan x="301.83" y="47.35">tions on the </tspan><tspan class="cls-53" x="0" y="71.03">w</tspan><tspan x="14.09" y="71.03">eb and mobile d</tspan><tspan class="cls-57" x="146.89" y="71.03">e</tspan><tspan x="156.77" y="71.03">vi</tspan><tspan class="cls-56" x="170.84" y="71.03">c</tspan><tspan x="179.42" y="71.03">es. </tspan><tspan class="cls-49" x="206.34" y="71.03">S</tspan><tspan x="216.4" y="71.03">tuden</tspan><tspan class="cls-34" x="265.33" y="71.03">t</tspan><tspan x="271.8" y="71.03">s will be able </tspan><tspan class="cls-69" x="381.3" y="71.03">t</tspan><tspan x="387.7" y="71.03">o </tspan><tspan x="0" y="94.7">choose a </tspan><tspan class="cls-34" x="77.01" y="94.7">f</tspan><tspan x="82.57" y="94.7">ocus, such as: Ru</tspan><tspan class="cls-53" x="221.83" y="94.7">b</tspan><tspan x="232.66" y="94.7">y on </tspan><tspan class="cls-70" x="271.25" y="94.7">R</tspan><tspan x="282.4" y="94.7">ails (and the </tspan><tspan x="0" y="118.38">Ru</tspan><tspan class="cls-53" x="21.96" y="118.38">b</tspan><tspan x="32.79" y="118.38">y p</tspan><tspan class="cls-34" x="56.9" y="118.38">r</tspan><tspan x="63.55" y="118.38">og</tspan><tspan class="cls-71" x="84.19" y="118.38">r</tspan><tspan x="90.56" y="118.38">amming langua</tspan><tspan class="cls-60" x="219.14" y="118.38">g</tspan><tspan x="228.81" y="118.38">e) or .NET (and the C# </tspan><tspan x="0" y="142.06">p</tspan><tspan class="cls-34" x="10.95" y="142.06">r</tspan><tspan x="17.6" y="142.06">og</tspan><tspan class="cls-49" x="38.24" y="142.06">r</tspan><tspan x="44.61" y="142.06">amming langua</tspan><tspan class="cls-69" x="173.19" y="142.06">g</tspan><tspan x="182.86" y="142.06">e).</tspan></text><text class="cls-30" transform="translate(955.28 372.29)">SQL</text><path class="cls-29" d="M942,329.4l-.08,11.42s11.84,6.73,25.37,5.64a142.49,142.49,0,0,0,26.69-5l.43-12.49s-15.65,4.8-26,4.8S942,329.4,942,329.4Z"/><path class="cls-29" d="M941.92,344.58V353a92,92,0,0,0,26.31,3.75c10.33,0,25.37-2.81,25.37-2.81v-9.4s-17.85,4.7-27.25,4.7S941.92,344.58,941.92,344.58Z"/><path class="cls-29" d="M966.35,305.12c13.15-.94,28.19,5.64,28.19,5.64l0,14.58s-8.48,5.15-27.27,5.15-25.37-4.7-25.37-4.7V311.7A73.06,73.06,0,0,1,966.35,305.12Zm-20.86,7.59c0,1.3,16.4,2.17,23.52,2.75s21.77-2.9,22.06-4.06-18.87-4.76-25-4.65C958.26,306.9,945.49,311.4,945.49,312.71Z"/><text class="cls-33" transform="translate(780.84 431.53)">Working with Se<tspan class="cls-72" x="137.46" y="0">r</tspan><tspan class="cls-73" x="145.13" y="0">v</tspan><tspan x="154.78" y="0">e</tspan><tspan class="cls-74" x="164.78" y="0">r</tspan><tspan x="172.02" y="0">s &amp; D</tspan><tspan class="cls-45" x="213.36" y="0">a</tspan><tspan class="cls-56" x="223.22" y="0">t</tspan><tspan x="229.93" y="0">a</tspan></text><g class="cls-75"><text class="cls-76" transform="translate(718.33 499.51)">CA<tspan class="cls-77" x="49.57" y="0">P</tspan><tspan class="cls-78" x="74.71" y="0">S</tspan><tspan class="cls-79" x="97.72" y="0">T</tspan><tspan x="120.38" y="0">ONE PR</tspan><tspan class="cls-80" x="262.25" y="0">O</tspan><tspan class="cls-81" x="289.29" y="0">JE</tspan><tspan class="cls-82" x="334.65" y="0">C</tspan><tspan class="cls-81" x="359.11" y="0">T</tspan></text></g><text class="cls-83" transform="translate(717.33 498.51)">CA<tspan class="cls-77" x="49.57" y="0">P</tspan><tspan class="cls-78" x="74.71" y="0">S</tspan><tspan class="cls-79" x="97.72" y="0">T</tspan><tspan x="120.38" y="0">ONE PR</tspan><tspan class="cls-80" x="262.25" y="0">O</tspan><tspan class="cls-81" x="289.29" y="0">JE</tspan><tspan class="cls-82" x="334.65" y="0">C</tspan><tspan class="cls-81" x="359.11" y="0">T</tspan></text><text class="cls-84" transform="translate(93.23 52.6)"><tspan class="cls-85">U</tspan><tspan x="14.68" y="0">nit I:</tspan><tspan class="cls-86" x="59.84" y="0"> </tspan><tspan class="cls-87" x="63.97" y="0">W</tspan><tspan class="cls-88" x="82.72" y="0">e</tspan><tspan class="cls-89" x="93.3" y="0">b </tspan><tspan class="cls-85" x="110.23" y="0">F</tspan><tspan x="121.45" y="0">un</tspan><tspan class="cls-90" x="146.79" y="0">d</tspan><tspan x="158.82" y="0">amentals</tspan></text><text class="cls-84" transform="translate(407.05 47.22)"><tspan class="cls-85">U</tspan><tspan x="14.68" y="0">nit II: </tspan><tspan class="cls-91" x="72.16" y="0">F</tspan><tspan class="cls-86" x="82.97" y="0">r</tspan><tspan x="92" y="0">on</tspan><tspan class="cls-90" x="116.6" y="0">t</tspan><tspan x="123.75" y="0">-end </tspan><tspan class="cls-91" x="171.14" y="0">F</tspan><tspan class="cls-92" x="181.95" y="0">r</tspan><tspan class="cls-93" x="190.78" y="0">ame</tspan><tspan class="cls-92" x="231.66" y="0">w</tspan><tspan class="cls-89" x="247.84" y="0">o</tspan><tspan class="cls-94" x="259.54" y="0">r</tspan><tspan x="268.58" y="0">ks</tspan></text><text class="cls-84" transform="translate(815.87 54.55)"><tspan class="cls-95">U</tspan><tspan x="14.68" y="0">nit III: </tspan><tspan class="cls-95" x="79.93" y="0">F</tspan><tspan class="cls-96" x="91.15" y="0">ull-</tspan><tspan class="cls-97" x="123.19" y="0">S</tspan><tspan x="134.02" y="0">ta</tspan><tspan class="cls-98" x="152.41" y="0">c</tspan><tspan class="cls-96" x="162.54" y="0">k De</tspan><tspan class="cls-99" x="204.48" y="0">v</tspan><tspan class="cls-100" x="214.92" y="0">e</tspan><tspan x="225.5" y="0">l</tspan><tspan class="cls-97" x="231.89" y="0">o</tspan><tspan x="243.38" y="0">pment</tspan></text><text class="cls-101" transform="translate(1239.96 147.9)">SHOW</text><text class="cls-101" transform="translate(1239.96 264.74)">TELL</text><text class="cls-101" transform="translate(1239.96 381.58)">DO</text><text class="cls-101" transform="translate(1240.39 498.42)">APP<tspan class="cls-102" x="77.25" y="0">L</tspan><tspan x="96.13" y="0">Y</tspan></text><polygon class="cls-103" points="341.18 582.09 348.38 585.18 334.94 601.16 230.84 590.08 223.02 604.34 211.94 603.07 202.37 590.71 82.77 601.47 70.54 584.86 80.1 581.18 86.38 595.16 208.33 583.89 217.94 595.56 226.76 582.21 332.27 593.1 341.18 582.09"/><polygon class="cls-103" points="778.96 577.67 770.37 581.63 780.13 602.71 977.22 587.75 986.56 606.07 997.62 607.69 1011.23 588.56 1191.01 599.14 1205.61 577.79 1197.91 573.8 1186.69 591.03 1007.18 581.85 992.97 599.76 980.75 580.48 785.44 594.27 778.96 577.67"/><polygon class="cls-103" points="740.66 572.04 748.63 575.87 736.83 599.15 571.04 596.25 562.41 603.11 552.88 603.88 542.56 596.88 380.73 590.76 372.45 570.54 381.22 570.3 385.93 585.97 548.53 590.05 557.8 596.8 566.95 588.38 732.68 591.49 740.66 572.04"/><text class="cls-104" transform="translate(174.05 634.28)">3 WEE<tspan class="cls-105" x="55.38" y="0">K</tspan><tspan x="67.85" y="0">S</tspan></text><text class="cls-104" transform="translate(517.16 634.27)">4 WEE<tspan class="cls-105" x="55.38" y="0">K</tspan><tspan x="67.85" y="0">S</tspan></text><text class="cls-104" transform="translate(954.01 636.33)">6 WEE<tspan class="cls-105" x="55.38" y="0">K</tspan><tspan x="67.85" y="0">S</tspan></text><polygon class="cls-106" points="1209.38 531.27 1230.83 518.45 1209.38 518.41 1209.38 531.27"/></g></g></svg>